<?xml version="1.0" encoding="UTF-8"?>
<svg xmlns="http://www.w3.org/2000/svg" style="display:none">
  <defs>
    <style>
      .fill-bg-grey {
        fill: #231f20;
      }

      .fill-bg-white {
        fill: #fff;
      }

      .stroke-black {
        stroke: #000;
      }

      .stroke-white {
        stroke: #fff;
      }

      .stroke-size {
        fill: none;
        stroke-miterlimit: 10;
        stroke-width: 2px;
      }
    </style>
  </defs>

  <!-- Analysis Dark -->
  <symbol id='icon-analysis-dark' viewBox='0 0 38.69 39.95'>
	<path class="stroke-size stroke-black" d="M29.55,9.49c1.02,1.04,1.02,2.72,0,3.75s-2.67,1.04-3.69,0-1.02-2.72,0-3.75,2.67-1.04,3.69,0Z"/>
	<g>
		<path class="fill-bg-grey" d="M8.36,31.14V6.15s0-.01-.01-.01h-2.61v27.66s0,.01.01.01h27.17v-2.66s0-.01-.01-.01H8.36Z"/>
		<path class="stroke-size stroke-black" d="M15.88,16.91c1.02,1.04,1.02,2.72,0,3.75s-2.67,1.04-3.69,0-1.02-2.72,0-3.75,2.67-1.04,3.69,0Z"/>
		<path class="stroke-size stroke-black" d="M24.45,22.8c1.02,1.04,1.02,2.72,0,3.75s-2.67,1.04-3.69,0-1.02-2.72,0-3.75,2.67-1.04,3.69,0Z"/>
		<line class="stroke-size stroke-black" x1="15.88" y1="20.66" x2="20" y2="23.26"/>
		<line class="stroke-size stroke-black" x1="23.82" y1="22.32" x2="27.16" y2="14.02"/>
	</g>
  </symbol>

  <!-- Analysis Light -->
  <symbol id='icon-analysis-light' viewBox='0 0 38.67 39.95'>
    <path class="stroke-size stroke-white" d="M30.22,9.59c1.02,1.04,1.02,2.72,0,3.75s-2.67,1.04-3.69,0-1.02-2.72,0-3.75,2.67-1.04,3.69,0Z"/>
    <path class="fill-bg-white" d="M9.03,31.24V6.25s0-.01-.01-.01h-2.61v27.66s0,.01.01.01h27.17v-2.66s0-.01-.01-.01H9.03Z"/>
    <path class="stroke-size stroke-white" d="M16.55,17.01c1.02,1.04,1.02,2.72,0,3.75s-2.67,1.04-3.69,0-1.02-2.72,0-3.75,2.67-1.04,3.69,0Z"/>
    <path class="stroke-size stroke-white" d="M25.12,22.9c1.02,1.04,1.02,2.72,0,3.75s-2.67,1.04-3.69,0-1.02-2.72,0-3.75,2.67-1.04,3.69,0Z"/>
    <line class="stroke-size stroke-white" x1="16.55" y1="20.76" x2="20.67" y2="23.36"/>
    <line class="stroke-size stroke-white" x1="24.49" y1="22.42" x2="27.83" y2="14.12"/>
  </symbol>

  <!-- Call Endpoint Dark -->
  <symbol id='icon-call-endpoint-dark' viewBox='0 0 38.67 39.95'>
    <path class="fill-bg-grey" d="M19.68,5.05c-8.24,0-14.92,6.68-14.92,14.92s6.68,14.92,14.92,14.92,14.92-6.68,14.92-14.92-6.68-14.92-14.92-14.92ZM28.12,24.3c-.49,10.51-22.18-6.74-14.51-12.19.68-.49,1.7-.48,1.7-.48.53-.06,1.46.19,1.64.77l.75,3c.13.82-.17,1.46-.68,1.97h0c-.19.19-.2.5-.02.71l4.03,4.51c.17.19.46.24.69.11l1.24-.71c.33-.19.72-.23,1.09-.13l3.22.83c.75.31.88.34.86,1.61Z"/>
  </symbol>

  <!-- Call Endpoint Light -->
  <symbol id='icon-call-endpoint-light' viewBox='0 0 38.67 39.95'>
    <path class="fill-bg-white" d="M19.68,5.05c-8.24,0-14.92,6.68-14.92,14.92s6.68,14.92,14.92,14.92,14.92-6.68,14.92-14.92-6.68-14.92-14.92-14.92ZM28.12,24.3c-.49,10.51-22.18-6.74-14.51-12.19.68-.49,1.7-.48,1.7-.48.53-.06,1.46.19,1.64.77l.75,3c.13.82-.17,1.46-.68,1.97h0c-.19.19-.2.5-.02.71l4.03,4.51c.17.19.46.24.69.11l1.24-.71c.33-.19.72-.23,1.09-.13l3.22.83c.75.31.88.34.86,1.61Z"/>
  </symbol>

  <!-- Fetch Dark -->
  <symbol id='icon-fetch-dark' viewBox='0 0 38.67 39.95'>
    <path d="M33.92,11.71c-.84-.91-1.96-1.38-3.1-1.44-.06-1.14-.53-2.25-1.44-3.1-1.69-1.57-4.37-1.6-6.09-.07s-1.96,3.81-.95,5.61c.22.39.14.89-.18,1.21l-8.47,8.47c-.32.32-.82.41-1.21.18-1.8-1.01-4.15-.7-5.61.95s-1.5,4.4.07,6.09c.84.91,1.96,1.38,3.1,1.44.06,1.14.53,2.25,1.44,3.1,1.69,1.56,4.37,1.6,6.09.07s1.96-3.81.95-5.61c-.22-.39-.14-.89.18-1.21l8.47-8.47c.32-.32.82-.41,1.21-.18,1.8,1.01,4.15.7,5.61-.95s1.5-4.4-.07-6.09Z"/>
  </symbol>

  <!-- Fetch Light -->
  <symbol id='icon-fetch-light' viewBox='0 0 38.67 39.95'>
    <path class="fill-bg-white" d="M33.92,11.02c-.84-.91-1.96-1.38-3.1-1.44-.06-1.14-.53-2.25-1.44-3.1-1.69-1.57-4.37-1.6-6.09-.07s-1.96,3.81-.95,5.61c.22.39.14.89-.18,1.21l-8.47,8.47c-.32.32-.82.41-1.21.18-1.8-1.01-4.15-.7-5.61.95s-1.5,4.4.07,6.09c.84.91,1.96,1.38,3.1,1.44.06,1.14.53,2.25,1.44,3.1,1.69,1.56,4.37,1.6,6.09.07s1.96-3.81.95-5.61c-.22-.39-.14-.89.18-1.21l8.47-8.47c.32-.32.82-.41,1.21-.18,1.8,1.01,4.15.7,5.61-.95s1.5-4.4-.07-6.09Z"/>
  </symbol>

  <!-- History Dark -->
  <symbol id='icon-history-dark' viewBox='0 0 38.67 39.95'>
    <path class="fill-bg-grey" d="M16.28,22.8v-6.4c0-.69.57-1.26,1.26-1.26h.37c.69,0,1.26.57,1.26,1.26v4.7c0,.12.11.2.23.17l4.41-1.32c.69-.21,1.42.19,1.63.87l.08.27c.21.69-.19,1.42-.87,1.63l-6.76,2.03c-.45.14-.93-.06-1.21-.36-.22-.22-.39-.43-.39-.84v-.22c0-.19,0-.32,0-.51Z"/>
    <path class="fill-bg-grey" d="M19.41,31.81c6.51,0,11.71-5.64,10.95-12.3-.56-4.9-4.45-8.91-9.35-9.6-4.36-.61-8.31,1.33-10.59,4.53-.08.11-.04.28.08.35l1.65.95c.17.1.15.36-.04.43l-6.59,2.29c-.14.05-.28-.04-.31-.18l-1.31-6.84c-.04-.2.17-.35.35-.25l2.07,1.19c.11.06.24.03.31-.07,3.01-4.51,8.33-7.34,14.28-6.78,7.15.68,12.97,6.39,13.77,13.51,1.03,9.26-6.2,17.11-15.27,17.11-6.68,0-12.36-4.27-14.47-10.22-.05-.13.03-.27.16-.31l3.75-1.03c.12-.03.23.03.28.14,1.58,4.14,5.59,7.08,10.29,7.08Z"/>
  </symbol>

  <!-- History Light -->
  <symbol id='icon-history-light' viewBox='0 0 38.67 39.95'>
    <path class="fill-bg-white" d="M16.28,22.35v-6.4c0-.69.57-1.26,1.26-1.26h.37c.69,0,1.26.57,1.26,1.26v4.7c0,.12.11.2.23.17l4.41-1.32c.69-.21,1.42.19,1.63.87l.08.27c.21.69-.19,1.42-.87,1.63l-6.76,2.03c-.45.14-.93-.06-1.21-.36-.22-.22-.39-.43-.39-.84v-.22c0-.19,0-.32,0-.51Z"/>
    <path class="fill-bg-white" d="M19.41,31.36c6.51,0,11.71-5.64,10.95-12.3-.56-4.9-4.45-8.91-9.35-9.6-4.36-.61-8.31,1.33-10.59,4.53-.08.11-.04.28.08.35l1.65.95c.17.1.15.36-.04.43l-6.59,2.29c-.14.05-.28-.04-.31-.18l-1.31-6.84c-.04-.2.17-.35.35-.25l2.07,1.19c.11.06.24.03.31-.07,3.01-4.51,8.33-7.34,14.28-6.78,7.15.68,12.97,6.39,13.77,13.51,1.03,9.26-6.2,17.11-15.27,17.11-6.68,0-12.36-4.27-14.47-10.22-.05-.13.03-.27.16-.31l3.75-1.03c.12-.03.23.03.28.14,1.58,4.14,5.59,7.08,10.29,7.08Z"/>
  </symbol>

  <!-- List Dark -->
  <symbol id='icon-list-dark' viewBox='0 0 38.67 39.95'>
    <path class="fill-bg-grey" d="M23.28,5.19h-1.45c-.26-.48-.75-.81-1.31-.81h-1.89c-.56,0-1.05.33-1.31.81h-1.45c-.51,0-.93.44-.93.98v1.25c0,.54.42.98.93.98h7.4c.51,0,.93-.44.93-.98v-1.25c0-.54-.42-.98-.93-.98Z"/>
    <path class="fill-bg-grey" d="M27.5,7.74h-2.24s-.07.03-.07.06c0,.65-.65,1.18-1.45,1.18h-8.33c-.8,0-1.45-.53-1.45-1.18,0-.03-.03-.06-.07-.06h-2.73c-3.2,0-4.16,1.52-4.16,3.39v19.36c0,2.67,1.87,3.39,4.16,3.39h16.34c2.29,0,4.16-.57,4.16-3.39V11.12c0-1.86-.78-3.39-4.16-3.39ZM26.74,27.59c0,.53-.44.97-.97.97h-12.38c-.53,0-.97-.44-.97-.97v-.06c0-.53.44-.97.97-.97h12.38c.53,0,.97.44.97.97v.06ZM26.74,21.43c0,.53-.44.97-.97.97h-12.38c-.53,0-.97-.44-.97-.97v-.06c0-.53.44-.97.97-.97h12.38c.53,0,.97.44.97.97v.06ZM26.74,15.5c0,.53-.44.97-.97.97h-12.38c-.53,0-.97-.44-.97-.97v-.06c0-.53.44-.97.97-.97h12.38c.53,0,.97.44.97.97v.06Z"/>
  </symbol>

  <!-- List Light -->
  <symbol id='icon-list-light' viewBox='0 0 38.67 39.95'>
    <path class="fill-bg-white" d="M23.53,5.97h-1.45c-.26-.48-.75-.81-1.31-.81h-1.89c-.56,0-1.05.33-1.31.81h-1.45c-.51,0-.93.44-.93.98v1.25c0,.54.42.98.93.98h7.4c.51,0,.93-.44.93-.98v-1.25c0-.54-.42-.98-.93-.98Z"/>
    <path class="fill-bg-white" d="M27.75,8.66h-2.24s-.07.03-.07.06c0,.65-.65,1.18-1.45,1.18h-8.33c-.8,0-1.45-.53-1.45-1.18,0-.03-.03-.06-.07-.06h-2.73c-3.2,0-4.16,1.52-4.16,3.39v19.36c0,2.67,1.87,3.39,4.16,3.39h16.34c2.29,0,4.16-.57,4.16-3.39V12.04c0-1.86-.78-3.39-4.16-3.39ZM26.99,28.51c0,.53-.44.97-.97.97h-12.38c-.53,0-.97-.44-.97-.97v-.06c0-.53.44-.97.97-.97h12.38c.53,0,.97.44.97.97v.06ZM26.99,22.35c0,.53-.44.97-.97.97h-12.38c-.53,0-.97-.44-.97-.97v-.06c0-.53.44-.97.97-.97h12.38c.53,0,.97.44.97.97v.06ZM26.99,16.42c0,.53-.44.97-.97.97h-12.38c-.53,0-.97-.44-.97-.97v-.06c0-.53.44-.97.97-.97h12.38c.53,0,.97.44.97.97v.06Z"/>
  </symbol>

  <!-- Mail Dark -->
  <symbol id='icon-mail-dark' viewBox='0 0 38.67 39.95'>
    <path class="fill-bg-grey" d="M19.33,5.29c-8.5,0-15.39,6.88-15.39,15.37s6.89,15.37,15.39,15.37,15.39-6.88,15.39-15.37-6.89-15.37-15.39-15.37ZM12.77,13.41c.18-.03.36-.05.55-.05h12.79c.36,0,.53.44.26.68l-5.04,4.51c-1.02.91-2.69.91-3.71,0l-5.03-4.49c-.23-.21-.12-.59.19-.65ZM29.16,25.05c0,1.89-1.55,3.44-3.44,3.44h-12.14c-1.89,0-3.44-1.55-3.44-3.44v-8.5c0-.38-.03-.89,0-1.32.01-.21.27-.32.43-.17l6.32,5.68c1.42,1.27,3.75,1.27,5.17,0l6.46-5.77c.25-.22.64-.04.64.29,0,.45,0,.85,0,1.29v8.5Z"/>
  </symbol>

  <!-- Mail Light -->
  <symbol id='icon-mail-light' viewBox='0 0 38.67 39.95'>
    <path class="fill-bg-white" d="M19.33,4.6c-8.5,0-15.39,6.88-15.39,15.37s6.89,15.37,15.39,15.37,15.39-6.88,15.39-15.37-6.89-15.37-15.39-15.37ZM12.77,12.73c.18-.03.36-.05.55-.05h12.79c.36,0,.53.44.26.68l-5.04,4.51c-1.02.91-2.69.91-3.71,0l-5.03-4.49c-.23-.21-.12-.59.19-.65ZM29.16,24.36c0,1.89-1.55,3.44-3.44,3.44h-12.14c-1.89,0-3.44-1.55-3.44-3.44v-8.5c0-.38-.03-.89,0-1.32.01-.21.27-.32.43-.17l6.32,5.68c1.42,1.27,3.75,1.27,5.17,0l6.46-5.77c.25-.22.64-.04.64.29,0,.45,0,.85,0,1.29v8.5Z"/>
  </symbol>

  <!-- Peek Dark -->
  <symbol id='icon-peek-dark' viewBox='0 0 38.67 39.95'>
    <path d="M26.06,11.89c-.94.79-.92,2.37.06,3.53.97,1.16,2.53,1.46,3.47.67.94-.79.92-2.37-.06-3.53-.97-1.16-2.53-1.46-3.47-.67Z"/>
    <path d="M22.6,4.77h-5.71c-6.6,0-12,5.4-12,12v15.06c0,1.46,1.19,2.65,2.65,2.65h15.06c6.6,0,12-5.4,12-12v-5.71c0-6.6-5.4-12-12-12ZM15.8,20.1c-2.69,0-4.88-2.18-4.88-4.88s2.18-4.88,4.88-4.88,4.88,2.18,4.88,4.88-2.18,4.88-4.88,4.88ZM26.83,20.1c-2.69,0-4.88-2.18-4.88-4.88s2.18-4.88,4.88-4.88,4.88,2.18,4.88,4.88-2.18,4.88-4.88,4.88Z"/>
    <path d="M15.04,11.89c-.94.79-.92,2.37.06,3.53.97,1.16,2.53,1.46,3.47.67.94-.79.92-2.37-.06-3.53-.97-1.16-2.53-1.46-3.47-.67Z"/>
  </symbol>

  <!-- Peek Light -->
  <symbol id='icon-peek-light' viewBox='0 0 38.67 39.95'>
    <g>
        <path class="fill-bg-white" d="M26.06,12.42c-.94.79-.92,2.37.06,3.53.97,1.16,2.53,1.46,3.47.67.94-.79.92-2.37-.06-3.53-.97-1.16-2.53-1.46-3.47-.67Z"/>
        <path class="fill-bg-white" d="M22.6,5.3h-5.71c-6.6,0-12,5.4-12,12v15.06c0,1.46,1.19,2.65,2.65,2.65h15.06c6.6,0,12-5.4,12-12v-5.71c0-6.6-5.4-12-12-12ZM15.8,20.63c-2.69,0-4.88-2.18-4.88-4.88s2.18-4.88,4.88-4.88,4.88,2.18,4.88,4.88-2.18,4.88-4.88,4.88ZM26.83,20.63c-2.69,0-4.88-2.18-4.88-4.88s2.18-4.88,4.88-4.88,4.88,2.18,4.88,4.88-2.18,4.88-4.88,4.88Z"/>
        <path class="fill-bg-white" d="M15.04,12.42c-.94.79-.92,2.37.06,3.53.97,1.16,2.53,1.46,3.47.67.94-.79.92-2.37-.06-3.53-.97-1.16-2.53-1.46-3.47-.67Z"/>
    </g>
    <polygon class="fill-bg-white" points="5.87 14.94 1.63 11.94 7.15 9.9 5.87 14.94"/>
  </symbol>

  <!-- Proxy Regrade Dark -->
  <symbol id='icon-proxy-regrade-dark' viewBox='0 0 38.67 39.95'>
    <circle class="fill-bg-grey" cx="12.75" cy="19" r="2"/>
    <circle class="fill-bg-grey" cx="19.08" cy="17.72" r="2.36"/>
    <path class="fill-bg-grey" d="M21.03,19.68c-.63.68-1.12.89-1.97.89-.75,0-1.44-.33-1.96-.88-1.31.89-2.19,2.1-2.19,4.39v1.6c0,.71.5,1.29,1.12,1.29h6.61c.62,0,1.12-.58,1.12-1.29v-1.6c0-2.64-1.19-3.96-2.73-4.41Z"/>
    <path d="M31.16,22.13c-.39,6.18-5.52,11.08-11.8,11.08s-11.82-5.29-11.82-11.82,5.29-11.82,11.82-11.82c4.28,0,8.02,2.28,10.09,5.68l-1.34.5,4.23,2.98,1.27-5.02-1.65.61c-2.48-4.4-7.18-7.38-12.59-7.38-7.98,0-14.45,6.47-14.45,14.45s6.47,14.45,14.45,14.45,13.79-5.84,14.4-13.26l-2.6-.43Z"/>
    <path class="fill-bg-grey" d="M14.44,24.21c0-1.3.26-2.29.71-3.07,0-.1-.04-.19-.13-.24-.11-.06-.23-.11-.34-.15-.16-.06-.35-.02-.48.09-.44.36-.84.48-1.47.48-.51,0-.98-.16-1.38-.43-.19-.13-.45-.12-.64.01-.9.63-1.49,1.5-1.49,2.99v.62c0,.83.68,1.5,1.5,1.5h3.58c.08,0,.14-.06.14-.14,0-.42,0-1.67,0-1.67Z"/>
    <circle class="fill-bg-grey" cx="25.91" cy="18.99" r="2"/>
    <path class="fill-bg-grey" d="M24.21,24.21c0-1.3-.26-2.29-.71-3.07,0-.1.04-.19.13-.24.11-.06.23-.11.34-.15.16-.06.35-.02.48.09.44.36.84.48,1.47.48.52,0,1-.16,1.39-.44.17-.12.4-.13.58,0,.93.64,1.54,1.51,1.54,3.03v.64c0,.81-.67,1.48-1.48,1.48h-3.62c-.07,0-.13-.05-.13-.12,0-.41,0-1.68,0-1.68Z"/>
  </symbol>

  <!-- Proxy Regrade Light -->
  <symbol id='icon-proxy-regrade-light' viewBox='0 0 38.67 39.95'>
    <circle class="fill-bg-white" cx="12.77" cy="17.98" r="2"/>
    <circle class="fill-bg-white" cx="19.11" cy="16.7" r="2.36"/>
    <path class="fill-bg-white" d="M21.06,18.67c-.63.68-1.12.89-1.97.89-.75,0-1.44-.33-1.96-.88-1.31.89-2.19,2.1-2.19,4.39v1.6c0,.71.5,1.29,1.12,1.29h6.61c.62,0,1.12-.58,1.12-1.29v-1.6c0-2.64-1.19-3.96-2.73-4.41Z"/>
    <path class="fill-bg-white" d="M31.18,21.11c-.39,6.18-5.52,11.08-11.8,11.08s-11.82-5.29-11.82-11.82,5.29-11.82,11.82-11.82c4.28,0,8.02,2.28,10.09,5.68l-1.34.5,4.23,2.98,1.27-5.02-1.65.61c-2.48-4.4-7.18-7.38-12.59-7.38-7.98,0-14.45,6.47-14.45,14.45s6.47,14.45,14.45,14.45,13.79-5.84,14.4-13.26l-2.6-.43Z"/>
    <path class="fill-bg-white" d="M14.47,23.19c0-1.3.26-2.29.71-3.07,0-.1-.04-.19-.13-.24-.11-.06-.23-.11-.34-.15-.16-.06-.35-.02-.48.09-.44.36-.84.48-1.47.48-.51,0-.98-.16-1.38-.43-.19-.13-.45-.12-.64.01-.9.63-1.49,1.5-1.49,2.99v.62c0,.83.68,1.5,1.5,1.5h3.58c.08,0,.14-.06.14-.14,0-.42,0-1.67,0-1.67Z"/>
    <circle class="fill-bg-white" cx="25.93" cy="17.98" r="2"/>
    <path class="fill-bg-white" d="M24.24,23.19c0-1.3-.26-2.29-.71-3.07,0-.1.04-.19.13-.24.11-.06.23-.11.34-.15.16-.06.35-.02.48.09.44.36.84.48,1.47.48.52,0,1-.16,1.39-.44.17-.12.4-.13.58,0,.93.64,1.54,1.51,1.54,3.03v.64c0,.81-.67,1.48-1.48,1.48h-3.62c-.07,0-.13-.05-.13-.12,0-.41,0-1.68,0-1.68Z"/>
  </symbol>

  <!-- Proxy Resubmit Dark -->
  <symbol id='icon-proxy-resubmit-dark' viewBox='0 0 38.67 39.95'>
    <g>
      <circle class="fill-bg-grey" cx="18.95" cy="15.95" r="3.82"/>
      <path class="fill-bg-grey" d="M22.39,18.85c-.86.95-2.1,1.54-3.48,1.54-1.22,0-2.33-.47-3.17-1.23-2.12,1.25-3.56,2.96-3.56,6.18v2.25c0,1,.82,1.81,1.81,1.81h10.72c1,0,1.81-.82,1.81-1.81v-2.25c0-3.72-1.7-5.34-4.14-6.49Z"/>
    </g>
    <path d="M31.2,22.13c-.39,6.2-5.54,11.11-11.84,11.11s-11.87-5.31-11.87-11.87,5.31-11.87,11.87-11.87c4.29,0,8.05,2.28,10.13,5.7l-1.35.5,4.24,2.99,1.27-5.03-1.66.61c-2.48-4.42-7.21-7.4-12.64-7.4-8.01,0-14.5,6.49-14.5,14.5s6.49,14.5,14.5,14.5,13.84-5.86,14.45-13.31l-2.61-.44Z"/>
  </symbol>

  <!-- Proxy Resubmit Light -->
  <symbol id='icon-proxy-resubmit-light' viewBox='0 0 38.67 39.95'>
    <circle class="fill-bg-white" cx="18.95" cy="15.95" r="3.82"/>
    <path class="fill-bg-white" d="M22.39,18.85c-.86.95-2.1,1.54-3.48,1.54-1.22,0-2.33-.47-3.17-1.23-2.12,1.25-3.56,2.96-3.56,6.18v2.25c0,1,.82,1.81,1.81,1.81h10.72c1,0,1.81-.82,1.81-1.81v-2.25c0-3.72-1.7-5.34-4.14-6.49Z"/>
    <path class="fill-bg-white" d="M31.2,22.13c-.39,6.2-5.54,11.11-11.84,11.11s-11.87-5.31-11.87-11.87,5.31-11.87,11.87-11.87c4.45,0,8.33,2.45,10.36,6.08l2.44-1.02c-2.44-4.57-7.25-7.69-12.8-7.69-8.01,0-14.5,6.49-14.5,14.5s6.49,14.5,14.5,14.5,13.84-5.86,14.45-13.31l-2.61-.44Z"/>
  </symbol>

  <!-- Proxy Submit Dark -->
  <symbol id='icon-proxy-submit-dark' viewBox='0 0 38.67 39.95'>
    <path d="M21.69,10.31c5.78,1.23,9.68,6.76,8.8,12.69-.91,6.16-6.65,10.42-12.82,9.5-6.16-.91-10.42-6.65-9.5-12.82.6-4.04,3.27-7.25,6.77-8.73l.28,1.34,3.41-3.57-4.56-1.9.35,1.65c-4.5,1.72-7.97,5.75-8.73,10.85-1.12,7.53,4.08,14.54,11.61,15.66s14.54-4.08,15.66-11.61-3.58-13.83-10.5-15.44l-.77,2.39Z"/>
    <path d="M19.27,25.89c-.44.47-1.18.5-1.65.07l-3.4-3.13c-.47-.44-.5-1.18-.07-1.65.44-.47,1.18-.5,1.65-.07l2.54,2.34,7.18-7.8c-1.54-1.67-3.74-2.71-6.19-2.71-4.66,0-8.43,3.78-8.43,8.43s3.78,8.43,8.43,8.43,8.43-3.78,8.43-8.43c0-1.35-.32-2.62-.88-3.75l-7.61,8.27Z"/>
  </symbol>

  <!-- Proxy Submit Light -->
  <symbol id='icon-proxy-submit-light' viewBox='0 0 38.67 39.95'>
    <path class="fill-bg-white" d="M21.31,9.04c5.78,1.23,9.68,6.76,8.8,12.69-.91,6.16-6.65,10.42-12.82,9.5-6.16-.91-10.42-6.65-9.5-12.82.6-4.04,3.27-7.25,6.77-8.73l.28,1.34,3.41-3.57-4.56-1.9.35,1.65c-4.5,1.72-7.97,5.75-8.73,10.85-1.12,7.53,4.08,14.54,11.61,15.66s14.54-4.08,15.66-11.61-3.58-13.83-10.5-15.44l-.77,2.39Z"/>
    <path class="fill-bg-white" d="M18.89,24.62c-.44.47-1.18.5-1.65.07l-3.4-3.13c-.47-.44-.5-1.18-.07-1.65.44-.47,1.18-.5,1.65-.07l2.54,2.34,7.18-7.8c-1.54-1.67-3.74-2.71-6.19-2.71-4.66,0-8.43,3.78-8.43,8.43s3.78,8.43,8.43,8.43,8.43-3.78,8.43-8.43c0-1.35-.32-2.62-.88-3.75l-7.61,8.27Z"/>
  </symbol>

  <!-- Submit Dark -->
  <symbol id='icon-submit-dark' viewBox='0 0 38.67 39.95'>
    <path d="M19.24,26.68c-.76.83-2.06.88-2.89.12l-5.94-5.46c-.83-.76-.88-2.06-.12-2.89.76-.83,2.06-.88,2.89-.12l4.43,4.08,12.53-13.63c-2.69-2.91-6.54-4.73-10.81-4.73-8.13,0-14.73,6.59-14.73,14.73s6.59,14.73,14.73,14.73,14.73-6.59,14.73-14.73c0-2.35-.56-4.58-1.54-6.55l-13.29,14.45Z"/>
  </symbol>

  <!-- Submit Light -->
  <symbol id='icon-submit-light' viewBox='0 0 38.67 39.95'>
    <path class="fill-bg-white" d="M19.24,27.97c-.76.83-2.06.88-2.89.12l-5.94-5.46c-.83-.76-.88-2.06-.12-2.89.76-.83,2.06-.88,2.89-.12l4.43,4.08,12.53-13.63c-2.69-2.91-6.54-4.73-10.81-4.73-8.13,0-14.73,6.59-14.73,14.73s6.59,14.73,14.73,14.73,14.73-6.59,14.73-14.73c0-2.35-.56-4.58-1.54-6.55l-13.29,14.45Z"/>
  </symbol>
</svg>
